<?xml version="1.0" encoding="UTF-8" standalone="no"?>
<!-- Created with Inkscape (http://www.inkscape.org/) -->

<svg xmlns:dc="http://purl.org/dc/elements/1.1/" xmlns:cc="http://creativecommons.org/ns#" xmlns:rdf="http://www.w3.org/1999/02/22-rdf-syntax-ns#" xmlns:svg="http://www.w3.org/2000/svg" xmlns="http://www.w3.org/2000/svg" xmlns:sodipodi="http://sodipodi.sourceforge.net/DTD/sodipodi-0.dtd" xmlns:inkscape="http://www.inkscape.org/namespaces/inkscape" width="180" height="180" id="svg2" version="1.1" inkscape:version="0.48.5 r10040" sodipodi:docname="logo.svg">
  <defs id="defs4" />
  <sodipodi:namedview id="base" pagecolor="#ffffff" bordercolor="#666666" borderopacity="1.0" inkscape:pageopacity="0.0" inkscape:pageshadow="2" inkscape:zoom="1.979899" inkscape:cx="80.669668" inkscape:cy="111.54323" inkscape:document-units="px" inkscape:current-layer="layer1" showgrid="true" units="in">
    <inkscape:grid type="xygrid" id="grid2985" empspacing="4" visible="true" enabled="true" snapvisiblegridlinesonly="true" units="in" spacingx="0.0625in" spacingy="0.0625in" />
  </sodipodi:namedview>
  <metadata id="metadata7">
    <rdf:RDF>
      <cc:Work rdf:about="">
        <dc:format>image/svg+xml</dc:format>
        <dc:type rdf:resource="http://purl.org/dc/dcmitype/StillImage" />
        <dc:title></dc:title>
      </cc:Work>
    </rdf:RDF>
  </metadata>
  <g inkscape:label="Layer 1" inkscape:groupmode="layer" id="layer1" transform="translate(0,-872.35975)">
    <g style="font-size:9px;font-style:normal;font-variant:normal;font-weight:normal;font-stretch:normal;text-indent:0;text-align:start;text-decoration:none;line-height:100%;letter-spacing:0px;word-spacing:0px;text-transform:none;direction:ltr;block-progression:tb;writing-mode:lr-tb;text-anchor:start;baseline-shift:baseline;color:#000000;fill:#000000;fill-opacity:1;fill-rule:nonzero;stroke:none;stroke-width:1px;marker:none;visibility:visible;display:inline;overflow:visible;enable-background:accumulate;font-family:Al Tarikh;-inkscape-font-specification:Al Tarikh" id="text2987">
      <path d="m 26.390625,1000.516 -11.109375,0 L 48,924.20349 l 11.15625,0 -32.765625,76.31251" style="font-size:96px;font-weight:bold;marker:none;font-family:Consolas;-inkscape-font-specification:Consolas" id="path3785" />
      <path d="m 82.546875,942.81287 0,31.03125 c -1.8e-5,2.59376 0.484357,4.56251 1.453125,5.90625 0.96873,1.31251 2.437478,1.96875 4.40625,1.96875 1.906224,0 3.734348,-0.78124 5.484375,-2.34375 1.781219,-1.59374 3.656217,-3.73436 5.625,-6.42188 l 0,-30.14062 11.437505,0 0,47.625 -9.89063,0 -0.28125,-7.03125 c -1.000035,1.21875 -2.015659,2.32813 -3.046875,3.32812 -1.031282,1 -2.156281,1.85938 -3.375,2.57813 -1.187528,0.6875 -2.500027,1.21875 -3.9375,1.59375 -1.406274,0.40625 -2.968773,0.60937 -4.6875,0.60937 -2.437519,0 -4.578141,-0.39062 -6.421875,-1.17187 -1.812513,-0.8125 -3.328136,-1.95313 -4.546875,-3.42188 -1.218759,-1.46874 -2.140633,-3.21874 -2.765625,-5.25 -0.593757,-2.06249 -0.890631,-4.35936 -0.890625,-6.89062 l 0,-31.96875 11.4375,0" style="font-size:96px;font-weight:bold;marker:none;font-family:Consolas;-inkscape-font-specification:Consolas" id="path3787" />
      <path d="m 131.95312,1000.516 -11.10937,0 32.71875,-76.31251 11.15625,0 -32.76563,76.31251" style="font-size:96px;font-weight:bold;marker:none;font-family:Consolas;-inkscape-font-specification:Consolas" id="path3789" />
    </g>
    <path sodipodi:type="arc" style="fill:none;stroke:#ff0000;stroke-width:7.50000000000000000;stroke-linecap:round;stroke-linejoin:round;stroke-miterlimit:4;stroke-opacity:1;stroke-dasharray:none;stroke-dashoffset:0" id="path2993" sodipodi:cx="90" sodipodi:cy="90" sodipodi:rx="45" sodipodi:ry="45" d="m 135,90 a 45,45 0 1 1 -90,0 45,45 0 1 1 90,0 z" transform="matrix(1.5,0,0,1.5,-45,827.35975)" />
    <path style="fill:none;stroke:#ff0000;stroke-width:11.25;stroke-linecap:round;stroke-linejoin:round;stroke-miterlimit:4;stroke-opacity:1;stroke-dasharray:none;stroke-dashoffset:0" d="M 34.886482,930.53994 145.11352,994.17956" id="path3763" inkscape:connector-curvature="0" />
  </g>
</svg>
